<svg xmlns="http://www.w3.org/2000/svg" width="30" height="30" viewBox="0 0 30 30">
    <path fill-rule="evenodd" d="M14.975 0C6.705 0 0 6.704 0 14.975c0 8.27 6.704 14.974 14.975 14.974 8.27 0 14.974-6.704 14.974-14.974S23.245 0 14.975 0zm12.11 13.898a38.802 38.802 0 0 0-8.015.532c-.31-.74-.625-1.45-.941-2.128.197-.092.394-.186.586-.283 2.348-1.183 4.297-2.713 5.817-4.56a12.039 12.039 0 0 1 2.552 6.439zM22.531 5.45c-1.418 1.807-3.308 3.257-5.656 4.341a55.722 55.722 0 0 0-4.226-6.753 12.29 12.29 0 0 1 2.325-.221c2.779 0 5.415.927 7.557 2.633zm-16.154.928a12.166 12.166 0 0 1 3.437-2.419 50.946 50.946 0 0 1 4.406 6.841 28.09 28.09 0 0 1-3.782.875c-3.023.492-5.747.477-7.277.407a12.08 12.08 0 0 1 3.216-5.704zm-3.561 8.597l.001-.087a38.557 38.557 0 0 0 8.001-.421 30.128 30.128 0 0 0 4.686-1.126c.257.546.514 1.115.767 1.705-1.867.502-3.58 1.16-5.118 1.965-2.495 1.306-4.527 3.003-6.057 5.055a12.067 12.067 0 0 1-2.28-7.091zm4.224 9.213c2.14-3.133 5.588-5.315 10.275-6.506.94 2.584 1.745 5.475 2.208 8.573a12.143 12.143 0 0 1-4.55.877c-2.943 0-5.727-1.039-7.933-2.944zm16.53-.617c-.449.449-.926.858-1.429 1.226a47.536 47.536 0 0 0-2.037-7.684 36.47 36.47 0 0 1 6.903-.397 12.065 12.065 0 0 1-3.437 6.855z"/>
</svg>
