<svg xmlns="http://www.w3.org/2000/svg" width="132" height="24" viewBox="0 0 132 24">
    <g fill="none" fill-rule="evenodd">
        <path fill="#D9484D" d="M44 18l2.32-13H59.4l-2.324 13H44zm15.4 0l2.291-13H66l-2.296 13H59.4z"/>
        <path fill="#000" fill-opacity=".803" fill-rule="nonzero" d="M.068 11.551c.133-1.242.498-2.37 1.096-3.386.598-1.016 1.365-1.801 2.303-2.356.937-.554 1.976-.816 3.117-.785 1.086.016 2.023.305 2.812.867.79.563 1.366 1.332 1.729 2.309.363.976.49 2.062.38 3.258-.124 1.343-.49 2.531-1.095 3.562-.606 1.031-1.379 1.822-2.32 2.373-.942.551-1.987.81-3.135.78-1.078-.016-2.01-.303-2.795-.862-.785-.558-1.361-1.324-1.729-2.297-.367-.972-.5-2.045-.398-3.216l.035-.247zm2.73 1.606c.04.82.256 1.478.651 1.975.395.496.943.755 1.647.779.953.023 1.751-.344 2.396-1.102.645-.758 1.049-1.793 1.213-3.105l.07-1.149c0-1-.199-1.785-.597-2.355-.399-.57-.977-.871-1.735-.902-1.187-.032-2.125.55-2.812 1.746-.414.726-.676 1.562-.785 2.507-.063.657-.079 1.192-.047 1.606zm18.27-5.297a5.116 5.116 0 0 0-1.09-.117c-1.218-.031-2.187.473-2.906 1.512l-1.523 8.683H12.77l2.192-12.68 2.636-.011-.28 1.441c.866-1.148 1.866-1.71 3-1.687.257 0 .612.058 1.066.175l-.317 2.684zm5.18 5.977l3.984-8.578h3.07l-7.511 14.87c-1.047 2-2.426 2.989-4.137 2.965a6.785 6.785 0 0 1-1.441-.234l.234-2.203.504.047c.672.023 1.227-.104 1.664-.381.438-.277.805-.709 1.102-1.295l.668-1.312-2.122-12.457h2.883l1.102 8.578zm13.84 4.101c-.094-.312-.133-.707-.117-1.183-1.047.976-2.176 1.449-3.387 1.418-1.102-.016-2.014-.37-2.737-1.061-.722-.691-1.06-1.568-1.013-2.63.062-1.337.64-2.388 1.734-3.153 1.094-.766 2.563-1.149 4.406-1.149l1.805.024.164-.867c.047-.305.047-.59 0-.856-.156-.844-.715-1.277-1.676-1.3-.593-.016-1.115.134-1.564.45-.45.317-.725.74-.826 1.272l-2.778.023a3.476 3.476 0 0 1 .832-2.056c.5-.59 1.165-1.049 1.993-1.377a6.745 6.745 0 0 1 2.625-.469c1.382.031 2.46.447 3.234 1.248.773.801 1.094 1.838.96 3.112l-.972 5.94-.093 1.056c-.024.46.035.91.175 1.347l-.011.211h-2.754zm-2.86-2.039a3.062 3.062 0 0 0 1.63-.404c.5-.285.925-.654 1.277-1.108l.433-2.402-1.324-.012c-1.047 0-1.883.198-2.508.592-.625.395-.98.936-1.066 1.623-.063.524.052.936.345 1.237.293.3.698.459 1.213.474z"/>
        <path fill="#000" fill-opacity=".639" fill-rule="nonzero" d="M66.087 11.625c.18-1.328.543-2.506 1.09-3.533.547-1.028 1.217-1.791 2.01-2.291.793-.5 1.681-.739 2.666-.715a4.46 4.46 0 0 1 2.05.521c.618.332 1.106.834 1.465 1.506L76.658 0h1.382l-3.129 18h-1.3l.316-1.688c-1.101 1.329-2.469 1.97-4.101 1.922-1.18-.03-2.104-.49-2.772-1.377-.668-.886-1.018-2.08-1.049-3.58a9.24 9.24 0 0 1 .059-1.406l.023-.246zm1.406.234a11.581 11.581 0 0 0-.07 1.676c.031 1.07.28 1.912.744 2.526.465.613 1.127.935 1.987.966.867.024 1.629-.175 2.285-.597a5.535 5.535 0 0 0 1.664-1.688l1.02-5.976c-.227-.758-.6-1.354-1.12-1.787-.52-.434-1.181-.663-1.986-.686-1.188-.04-2.178.416-2.97 1.365-.794.95-1.304 2.268-1.53 3.955l-.024.246zm16.114 6.375c-1.016-.015-1.895-.298-2.637-.85-.742-.55-1.287-1.3-1.635-2.25-.347-.948-.47-1.974-.369-3.075l.035-.399a8.468 8.468 0 0 1 1.043-3.346c.586-1.058 1.328-1.867 2.227-2.425a5.134 5.134 0 0 1 2.883-.803c.945.016 1.744.273 2.396.773.652.5 1.127 1.196 1.424 2.086.297.89.39 1.875.281 2.953l-.094.856h-8.777l-.035.281a5.566 5.566 0 0 0 .187 2.444c.243.777.64 1.394 1.19 1.851.55.457 1.213.693 1.986.71.75.023 1.426-.122 2.028-.435a6.475 6.475 0 0 0 1.664-1.253l.82.668a5.69 5.69 0 0 1-2.033 1.67c-.785.378-1.647.56-2.584.544zm1.476-11.953c-1.015-.039-1.925.32-2.73 1.078-.805.758-1.41 1.825-1.817 3.2l7.36.011.035-.175c.14-1.11-.055-2.065-.586-2.866-.531-.8-1.285-1.216-2.262-1.248zm13.653 8.414c.125-1.078-.532-1.86-1.97-2.343l-2.015-.598c-1.851-.625-2.726-1.668-2.625-3.129.055-1.055.541-1.912 1.46-2.572.917-.66 2.009-.983 3.275-.967 1.242.016 2.25.365 3.023 1.049.774.683 1.133 1.595 1.078 2.736H99.58c.047-.758-.189-1.375-.709-1.851-.52-.477-1.209-.723-2.068-.739-.89 0-1.64.21-2.25.627-.61.418-.953.97-1.031 1.658-.117 1.008.5 1.715 1.851 2.121l1.465.422.785.27c1.766.664 2.598 1.746 2.496 3.246-.062 1.016-.501 1.85-1.318 2.502-.816.652-1.869 1.018-3.158 1.096l-.48.011c-.852-.015-1.622-.181-2.31-.498-.687-.316-1.214-.76-1.581-1.33-.367-.57-.528-1.226-.48-1.968l1.394.011c0 .797.27 1.426.808 1.887.54.46 1.282.7 2.227.715.938 0 1.734-.213 2.39-.639.657-.426 1.032-.998 1.126-1.717zM104.185 18h-1.406l2.214-12.68h1.395L104.185 18zm1.195-16.348c.04-.507.375-.828 1.008-.96.305.054.522.15.65.287.13.136.213.36.252.673-.078.297-.191.514-.34.65-.148.137-.37.237-.667.3-.633-.094-.934-.41-.903-.95zm8.895 3.422a4.62 4.62 0 0 1 2.074.54c.625.335 1.117.847 1.477 1.534l.433-1.828h1.3l-2.132 12.457c-.148 1.063-.484 2-1.008 2.813a5.353 5.353 0 0 1-2.01 1.869c-.816.434-1.724.635-2.724.604a5.055 5.055 0 0 1-2.285-.598 4.67 4.67 0 0 1-1.77-1.63l.867-.82c.805 1.212 1.856 1.833 3.153 1.864 1.156.031 2.123-.318 2.9-1.049.777-.73 1.268-1.725 1.47-2.982l.306-1.477c-1.125 1.29-2.48 1.91-4.067 1.863-1.187-.03-2.111-.486-2.771-1.365-.66-.879-1.006-2.076-1.037-3.592a10.645 10.645 0 0 1 .703-4.148c.515-1.367 1.216-2.393 2.103-3.076a4.593 4.593 0 0 1 3.018-.979zm-4.36 6.797l-.07 1.09c-.023 1.281.2 2.271.668 2.97.469.7 1.16 1.065 2.074 1.096a3.938 3.938 0 0 0 2.192-.55c.68-.399 1.265-.989 1.757-1.77l.997-5.918c-.211-.758-.577-1.357-1.096-1.799-.52-.441-1.186-.674-1.998-.697-1.196-.04-2.186.422-2.97 1.383-.786.96-1.304 2.36-1.554 4.195zm14.614-6.55l-.422 2.167c.562-.781 1.213-1.38 1.95-1.799a4.563 4.563 0 0 1 2.374-.603c1.219.031 2.105.457 2.66 1.277.555.82.75 1.95.586 3.387L130.294 18h-1.383l1.383-8.273c.047-.446.055-.875.024-1.29-.133-1.39-.89-2.105-2.274-2.144-.82-.016-1.586.228-2.297.732-.71.504-1.336 1.264-1.875 2.28l-1.5 8.695h-1.382l2.203-12.68h1.336z"/>
    </g>
</svg>
