<svg xmlns="http://www.w3.org/2000/svg" width="30" height="20" viewBox="0 0 30 20">
    <path fill-rule="evenodd" d="M27.037 2.703h-7.502V.805h7.503v1.898h-.001zm-12.496 7.782c.484.764.726 1.69.726 2.78 0 1.125-.272 2.135-.827 3.027a5.217 5.217 0 0 1-1.318 1.49c-.593.464-1.295.783-2.102.953-.81.17-1.686.256-2.63.256H0V.018h8.997c2.267.037 3.875.706 4.824 2.02.57.806.852 1.774.852 2.898 0 1.16-.286 2.088-.86 2.793-.32.396-.793.755-1.42 1.08.949.353 1.668.91 2.148 1.676zM4.296 7.498h3.942c.81 0 1.465-.157 1.97-.47.503-.313.755-.87.755-1.669 0-.882-.333-1.468-1-1.75-.575-.196-1.309-.297-2.2-.297H4.296v4.186zm7.046 5.495c0-.985-.395-1.667-1.184-2.032-.442-.208-1.065-.314-1.863-.322H4.296v5.057h3.937c.809 0 1.435-.108 1.886-.333.815-.414 1.223-1.2 1.223-2.37zM29.82 9.907c.091.62.132 1.521.115 2.698H20.22c.054 1.366.516 2.321 1.394 2.868.53.343 1.172.51 1.924.51.792 0 1.438-.204 1.936-.624.27-.222.51-.536.716-.932h3.561c-.093.807-.522 1.625-1.292 2.456-1.194 1.322-2.868 1.985-5.018 1.985-1.777 0-3.342-.56-4.701-1.673-1.354-1.118-2.035-2.93-2.035-5.444 0-2.358.611-4.163 1.836-5.419 1.23-1.258 2.818-1.885 4.774-1.885 1.16 0 2.205.211 3.138.636.93.425 1.698 1.093 2.303 2.012.548.81.9 1.746 1.064 2.812zm-3.505.354c-.065-.945-.375-1.66-.932-2.148-.553-.49-1.244-.736-2.068-.736-.897 0-1.59.263-2.081.78-.496.515-.804 1.216-.93 2.104h6.011z"/>
</svg>
